<svg xmlns="http://www.w3.org/2000/svg" viewBox="0 0 80 80" id="like">
  <path d="M75 32.548c0-3.916-3.186-7.101-7.1-7.101H50.061c1.311-4.285 2.868-12.455-2.189-17.435-1.526-1.502-3.468-2.352-5.469-2.394-2.016-.048-3.773.675-5.082 2.074a4.136 4.136 0 0 0-1.108 2.838v.711c0 7.31-3.331 14.08-8.91 18.107a21.165 21.165 0 0 1-5.381 2.812 3.366 3.366 0 0 0-3.353-3.188H8.371A3.375 3.375 0 0 0 5 32.342v38.67a3.375 3.375 0 0 0 3.371 3.371h10.2a3.375 3.375 0 0 0 3.37-3.37V69.64c5.945 1.004 12.078 1.509 18.369 1.509 7.033 0 14.262-.628 21.636-1.884a6.902 6.902 0 0 0 6.71-6.891c0-1.155-.289-2.243-.793-3.2 2.877-.88 4.977-3.56 4.977-6.721 0-1.48-.462-2.85-1.245-3.984A6.885 6.885 0 0 0 75 42.537c0-1.942-.81-3.694-2.107-4.948A7.078 7.078 0 0 0 75 32.548z" fill="red"></path>
</svg>