<svg id="visual" viewBox="0 0 900 300" width="900" height="300" xmlns="http://www.w3.org/2000/svg" xmlns:xlink="http://www.w3.org/1999/xlink" version="1.1"><rect x="0" y="0" width="900" height="300" fill="#FAF9F6"></rect><path d="M0 85L10 85.8C20 86.7 40 88.3 60 92.7C80 97 100 104 120 109.2C140 114.3 160 117.7 180 117.3C200 117 220 113 240 107.8C260 102.7 280 96.3 300 93.2C320 90 340 90 360 95C380 100 400 110 420 112.2C440 114.3 460 108.7 480 102.3C500 96 520 89 540 88C560 87 580 92 600 94C620 96 640 95 660 93.8C680 92.7 700 91.3 720 94.8C740 98.3 760 106.7 780 105.2C800 103.7 820 92.3 840 91.3C860 90.3 880 99.7 890 104.3L900 109L900 0L890 0C880 0 860 0 840 0C820 0 800 0 780 0C760 0 740 0 720 0C700 0 680 0 660 0C640 0 620 0 600 0C580 0 560 0 540 0C520 0 500 0 480 0C460 0 440 0 420 0C400 0 380 0 360 0C340 0 320 0 300 0C280 0 260 0 240 0C220 0 200 0 180 0C160 0 140 0 120 0C100 0 80 0 60 0C40 0 20 0 10 0L0 0Z" fill="#1f7b3c"></path><path d="M0 88L10 90.8C20 93.7 40 99.3 60 102.7C80 106 100 107 120 102.8C140 98.7 160 89.3 180 84C200 78.7 220 77.3 240 79.5C260 81.7 280 87.3 300 87.5C320 87.7 340 82.3 360 85C380 87.7 400 98.3 420 101C440 103.7 460 98.3 480 94.5C500 90.7 520 88.3 540 86.3C560 84.3 580 82.7 600 80.5C620 78.3 640 75.7 660 75C680 74.3 700 75.7 720 75.3C740 75 760 73 780 72.7C800 72.3 820 73.7 840 75.8C860 78 880 81 890 82.5L900 84L900 0L890 0C880 0 860 0 840 0C820 0 800 0 780 0C760 0 740 0 720 0C700 0 680 0 660 0C640 0 620 0 600 0C580 0 560 0 540 0C520 0 500 0 480 0C460 0 440 0 420 0C400 0 380 0 360 0C340 0 320 0 300 0C280 0 260 0 240 0C220 0 200 0 180 0C160 0 140 0 120 0C100 0 80 0 60 0C40 0 20 0 10 0L0 0Z" fill="#278745"></path><path d="M0 62L10 62.5C20 63 40 64 60 67.2C80 70.3 100 75.7 120 75.5C140 75.3 160 69.7 180 69.8C200 70 220 76 240 79C260 82 280 82 300 83.3C320 84.7 340 87.3 360 83C380 78.7 400 67.3 420 65C440 62.7 460 69.3 480 74.3C500 79.3 520 82.7 540 83.8C560 85 580 84 600 84.7C620 85.3 640 87.7 660 88.8C680 90 700 90 720 84.3C740 78.7 760 67.3 780 62C800 56.7 820 57.3 840 57.7C860 58 880 58 890 58L900 58L900 0L890 0C880 0 860 0 840 0C820 0 800 0 780 0C760 0 740 0 720 0C700 0 680 0 660 0C640 0 620 0 600 0C580 0 560 0 540 0C520 0 500 0 480 0C460 0 440 0 420 0C400 0 380 0 360 0C340 0 320 0 300 0C280 0 260 0 240 0C220 0 200 0 180 0C160 0 140 0 120 0C100 0 80 0 60 0C40 0 20 0 10 0L0 0Z" fill="#2e944e"></path><path d="M0 52L10 53.8C20 55.7 40 59.3 60 61.8C80 64.3 100 65.7 120 62.8C140 60 160 53 180 54.2C200 55.3 220 64.7 240 67.8C260 71 280 68 300 67.8C320 67.7 340 70.3 360 69.5C380 68.7 400 64.3 420 62.7C440 61 460 62 480 64.2C500 66.3 520 69.7 540 70.7C560 71.7 580 70.3 600 69.8C620 69.3 640 69.7 660 68C680 66.3 700 62.7 720 63.7C740 64.7 760 70.3 780 69.8C800 69.3 820 62.7 840 60.2C860 57.7 880 59.3 890 60.2L900 61L900 0L890 0C880 0 860 0 840 0C820 0 800 0 780 0C760 0 740 0 720 0C700 0 680 0 660 0C640 0 620 0 600 0C580 0 560 0 540 0C520 0 500 0 480 0C460 0 440 0 420 0C400 0 380 0 360 0C340 0 320 0 300 0C280 0 260 0 240 0C220 0 200 0 180 0C160 0 140 0 120 0C100 0 80 0 60 0C40 0 20 0 10 0L0 0Z" fill="#36a157"></path><path d="M0 52L10 52.2C20 52.3 40 52.7 60 50.8C80 49 100 45 120 42.8C140 40.7 160 40.3 180 41C200 41.7 220 43.3 240 45.7C260 48 280 51 300 51.8C320 52.7 340 51.3 360 52.2C380 53 400 56 420 57.2C440 58.3 460 57.7 480 55.8C500 54 520 51 540 50.2C560 49.3 580 50.7 600 52.5C620 54.3 640 56.7 660 57.5C680 58.3 700 57.7 720 54C740 50.3 760 43.7 780 44.2C800 44.7 820 52.3 840 52.5C860 52.7 880 45.3 890 41.7L900 38L900 0L890 0C880 0 860 0 840 0C820 0 800 0 780 0C760 0 740 0 720 0C700 0 680 0 660 0C640 0 620 0 600 0C580 0 560 0 540 0C520 0 500 0 480 0C460 0 440 0 420 0C400 0 380 0 360 0C340 0 320 0 300 0C280 0 260 0 240 0C220 0 200 0 180 0C160 0 140 0 120 0C100 0 80 0 60 0C40 0 20 0 10 0L0 0Z" fill="#3dae60"></path><path d="M0 27L10 27.5C20 28 40 29 60 30.8C80 32.7 100 35.3 120 37.3C140 39.3 160 40.7 180 40C200 39.3 220 36.7 240 36.8C260 37 280 40 300 39.8C320 39.7 340 36.3 360 34C380 31.7 400 30.3 420 29C440 27.7 460 26.3 480 25.7C500 25 520 25 540 27.3C560 29.7 580 34.3 600 36.5C620 38.7 640 38.3 660 36C680 33.7 700 29.3 720 27.7C740 26 760 27 780 29.5C800 32 820 36 840 34.8C860 33.7 880 27.3 890 24.2L900 21L900 0L890 0C880 0 860 0 840 0C820 0 800 0 780 0C760 0 740 0 720 0C700 0 680 0 660 0C640 0 620 0 600 0C580 0 560 0 540 0C520 0 500 0 480 0C460 0 440 0 420 0C400 0 380 0 360 0C340 0 320 0 300 0C280 0 260 0 240 0C220 0 200 0 180 0C160 0 140 0 120 0C100 0 80 0 60 0C40 0 20 0 10 0L0 0Z" fill="#45bb69"></path><path d="M0 12L10 12.7C20 13.3 40 14.7 60 14.5C80 14.3 100 12.7 120 12.5C140 12.3 160 13.7 180 13.7C200 13.7 220 12.3 240 11.8C260 11.3 280 11.7 300 13.2C320 14.7 340 17.3 360 19.3C380 21.3 400 22.7 420 21.8C440 21 460 18 480 15.8C500 13.7 520 12.3 540 12.2C560 12 580 13 600 14.7C620 16.3 640 18.7 660 19.5C680 20.3 700 19.7 720 20.7C740 21.7 760 24.3 780 22.7C800 21 820 15 840 14.3C860 13.7 880 18.3 890 20.7L900 23L900 0L890 0C880 0 860 0 840 0C820 0 800 0 780 0C760 0 740 0 720 0C700 0 680 0 660 0C640 0 620 0 600 0C580 0 560 0 540 0C520 0 500 0 480 0C460 0 440 0 420 0C400 0 380 0 360 0C340 0 320 0 300 0C280 0 260 0 240 0C220 0 200 0 180 0C160 0 140 0 120 0C100 0 80 0 60 0C40 0 20 0 10 0L0 0Z" fill="#4cc973"></path></svg>