<svg id="visual" viewBox="0 0 900 300" width="900" height="300" xmlns="http://www.w3.org/2000/svg" xmlns:xlink="http://www.w3.org/1999/xlink" version="1.1"><rect x="0" y="0" width="900" height="300" fill="#209B47"></rect><path d="M0 173L10 179.5C20 186 40 199 60 200.5C80 202 100 192 120 191.2C140 190.3 160 198.7 180 197.8C200 197 220 187 240 188.2C260 189.3 280 201.7 300 204.5C320 207.3 340 200.7 360 200.2C380 199.7 400 205.3 420 204.7C440 204 460 197 480 193C500 189 520 188 540 185.8C560 183.7 580 180.3 600 178C620 175.7 640 174.3 660 175.3C680 176.3 700 179.7 720 182.3C740 185 760 187 780 189C800 191 820 193 840 195.2C860 197.3 880 199.7 890 200.8L900 202L900 301L890 301C880 301 860 301 840 301C820 301 800 301 780 301C760 301 740 301 720 301C700 301 680 301 660 301C640 301 620 301 600 301C580 301 560 301 540 301C520 301 500 301 480 301C460 301 440 301 420 301C400 301 380 301 360 301C340 301 320 301 300 301C280 301 260 301 240 301C220 301 200 301 180 301C160 301 140 301 120 301C100 301 80 301 60 301C40 301 20 301 10 301L0 301Z" fill="#4cc973"></path><path d="M0 218L10 219.3C20 220.7 40 223.3 60 220.3C80 217.3 100 208.7 120 208.7C140 208.7 160 217.3 180 216.7C200 216 220 206 240 202.3C260 198.7 280 201.3 300 204.2C320 207 340 210 360 209C380 208 400 203 420 203.3C440 203.7 460 209.3 480 210.2C500 211 520 207 540 209C560 211 580 219 600 219.7C620 220.3 640 213.7 660 211.8C680 210 700 213 720 213.8C740 214.7 760 213.3 780 211.7C800 210 820 208 840 209.7C860 211.3 880 216.7 890 219.3L900 222L900 301L890 301C880 301 860 301 840 301C820 301 800 301 780 301C760 301 740 301 720 301C700 301 680 301 660 301C640 301 620 301 600 301C580 301 560 301 540 301C520 301 500 301 480 301C460 301 440 301 420 301C400 301 380 301 360 301C340 301 320 301 300 301C280 301 260 301 240 301C220 301 200 301 180 301C160 301 140 301 120 301C100 301 80 301 60 301C40 301 20 301 10 301L0 301Z" fill="#3aa85c"></path><path d="M0 206L10 206.5C20 207 40 208 60 208.2C80 208.3 100 207.7 120 211C140 214.3 160 221.7 180 225.5C200 229.3 220 229.7 240 229.7C260 229.7 280 229.3 300 228.2C320 227 340 225 360 225C380 225 400 227 420 228.5C440 230 460 231 480 231.5C500 232 520 232 540 228.5C560 225 580 218 600 219.5C620 221 640 231 660 231.5C680 232 700 223 720 219C740 215 760 216 780 217.7C800 219.3 820 221.7 840 224.3C860 227 880 230 890 231.5L900 233L900 301L890 301C880 301 860 301 840 301C820 301 800 301 780 301C760 301 740 301 720 301C700 301 680 301 660 301C640 301 620 301 600 301C580 301 560 301 540 301C520 301 500 301 480 301C460 301 440 301 420 301C400 301 380 301 360 301C340 301 320 301 300 301C280 301 260 301 240 301C220 301 200 301 180 301C160 301 140 301 120 301C100 301 80 301 60 301C40 301 20 301 10 301L0 301Z" fill="#278745"></path><path d="M0 246L10 244.3C20 242.7 40 239.3 60 236.5C80 233.7 100 231.3 120 233.8C140 236.3 160 243.7 180 247.5C200 251.3 220 251.7 240 251.5C260 251.3 280 250.7 300 248.3C320 246 340 242 360 238.5C380 235 400 232 420 234.2C440 236.3 460 243.7 480 242.7C500 241.7 520 232.3 540 232.7C560 233 580 243 600 243.2C620 243.3 640 233.7 660 230.7C680 227.7 700 231.3 720 234.2C740 237 760 239 780 239.2C800 239.3 820 237.7 840 239.8C860 242 880 248 890 251L900 254L900 301L890 301C880 301 860 301 840 301C820 301 800 301 780 301C760 301 740 301 720 301C700 301 680 301 660 301C640 301 620 301 600 301C580 301 560 301 540 301C520 301 500 301 480 301C460 301 440 301 420 301C400 301 380 301 360 301C340 301 320 301 300 301C280 301 260 301 240 301C220 301 200 301 180 301C160 301 140 301 120 301C100 301 80 301 60 301C40 301 20 301 10 301L0 301Z" fill="#1f7b3c"></path><path d="M0 254L10 254C20 254 40 254 60 254.3C80 254.7 100 255.3 120 255.5C140 255.7 160 255.3 180 257C200 258.7 220 262.3 240 262.7C260 263 280 260 300 256.7C320 253.3 340 249.7 360 251C380 252.3 400 258.7 420 259C440 259.3 460 253.7 480 251C500 248.3 520 248.7 540 249.7C560 250.7 580 252.3 600 254.2C620 256 640 258 660 258C680 258 700 256 720 255.3C740 254.7 760 255.3 780 253.3C800 251.3 820 246.7 840 245.5C860 244.3 880 246.7 890 247.8L900 249L900 301L890 301C880 301 860 301 840 301C820 301 800 301 780 301C760 301 740 301 720 301C700 301 680 301 660 301C640 301 620 301 600 301C580 301 560 301 540 301C520 301 500 301 480 301C460 301 440 301 420 301C400 301 380 301 360 301C340 301 320 301 300 301C280 301 260 301 240 301C220 301 200 301 180 301C160 301 140 301 120 301C100 301 80 301 60 301C40 301 20 301 10 301L0 301Z" fill="#278745"></path><path d="M0 275L10 274.7C20 274.3 40 273.7 60 272.2C80 270.7 100 268.3 120 268.3C140 268.3 160 270.7 180 270.8C200 271 220 269 240 266.3C260 263.7 280 260.3 300 261.3C320 262.3 340 267.7 360 270.5C380 273.3 400 273.7 420 271.5C440 269.3 460 264.7 480 263.8C500 263 520 266 540 266.5C560 267 580 265 600 265.8C620 266.7 640 270.3 660 272.2C680 274 700 274 720 274.7C740 275.3 760 276.7 780 273.5C800 270.3 820 262.7 840 261.3C860 260 880 265 890 267.5L900 270L900 301L890 301C880 301 860 301 840 301C820 301 800 301 780 301C760 301 740 301 720 301C700 301 680 301 660 301C640 301 620 301 600 301C580 301 560 301 540 301C520 301 500 301 480 301C460 301 440 301 420 301C400 301 380 301 360 301C340 301 320 301 300 301C280 301 260 301 240 301C220 301 200 301 180 301C160 301 140 301 120 301C100 301 80 301 60 301C40 301 20 301 10 301L0 301Z" fill="#3aa85c"></path><path d="M0 278L10 279.5C20 281 40 284 60 285.8C80 287.7 100 288.3 120 287.8C140 287.3 160 285.7 180 283.2C200 280.7 220 277.3 240 275.7C260 274 280 274 300 276.2C320 278.3 340 282.7 360 285C380 287.3 400 287.7 420 287.8C440 288 460 288 480 287.3C500 286.7 520 285.3 540 284.2C560 283 580 282 600 281.2C620 280.3 640 279.7 660 278.8C680 278 700 277 720 278.3C740 279.7 760 283.3 780 285.2C800 287 820 287 840 284.8C860 282.7 880 278.3 890 276.2L900 274L900 301L890 301C880 301 860 301 840 301C820 301 800 301 780 301C760 301 740 301 720 301C700 301 680 301 660 301C640 301 620 301 600 301C580 301 560 301 540 301C520 301 500 301 480 301C460 301 440 301 420 301C400 301 380 301 360 301C340 301 320 301 300 301C280 301 260 301 240 301C220 301 200 301 180 301C160 301 140 301 120 301C100 301 80 301 60 301C40 301 20 301 10 301L0 301Z" fill="#4cc973"></path></svg>